<?xml version="1.0" encoding="utf-8"?>
<!-- Svg Vector Icons : http://www.onlinewebfonts.com/icon -->
<!DOCTYPE svg PUBLIC "-//W3C//DTD SVG 1.1//EN" "http://www.w3.org/Graphics/SVG/1.1/DTD/svg11.dtd">
<svg version="1.1" xmlns="http://www.w3.org/2000/svg" xmlns:xlink="http://www.w3.org/1999/xlink" x="0px" y="0px" viewBox="0 0 1000 1000" enable-background="new 0 0 1000 1000" xml:space="preserve">
<metadata> Svg Vector Icons : http://www.onlinewebfonts.com/icon </metadata>
<g><path d="M500,10.4C229.4,10.4,10,229.6,10,500c0,270.4,219.4,489.6,490,489.6c270.6,0,490-219.2,490-489.6C990,229.6,770.6,10.4,500,10.4z M500,954.7C249,954.7,45.5,751.1,45.5,500c0-118.6,45.4-226.5,119.7-307.5c0.1,0.1,0.2,0.2,0.3,0.3l645.1,639.1C729.3,908,620.1,954.7,500,954.7z M835.1,807.1L190.5,168.4c-0.2-0.2-0.5-0.5-0.7-0.7C271,91.8,380,45.3,500,45.3c251,0,454.5,203.6,454.5,454.7C954.5,618.4,909.2,726.2,835.1,807.1z"/></g>
</svg>